<svg width="31" height="31" viewBox="0 0 31 31" fill="none" xmlns="http://www.w3.org/2000/svg">
<path d="M31 14.3125C31 13.8983 30.6642 13.5625 30.25 13.5625H9.23129C8.56311 13.5625 8.22848 12.7546 8.70096 12.2822L17.719 3.26408C18.0127 2.97046 18.0118 2.49414 17.7172 2.20155L16.0303 0.526588C15.7371 0.235461 15.2637 0.236298 14.9715 0.528459L0.53033 14.9697C0.237437 15.2626 0.237437 15.7374 0.53033 16.0303L14.9697 30.4697C15.2626 30.7626 15.7374 30.7626 16.0303 30.4697L17.702 28.798C17.9947 28.5053 17.9949 28.0308 17.7025 27.7378L8.69819 18.7174C8.22637 18.2447 8.56114 17.4375 9.229 17.4375H30.25C30.6642 17.4375 31 17.1017 31 16.6875V14.3125Z" fill="#5C5C5C"/>
</svg>
