<svg width="425" height="630" viewBox="0 0 425 630" fill="none" xmlns="http://www.w3.org/2000/svg">
<rect width="425" height="630" fill="#212121"/>
<path d="M67.5455 178C65.677 178 64.7427 176.999 64.7427 174.997V123.587C64.7427 121.585 65.677 120.584 67.5455 120.584H79.1568C80.705 120.584 81.8127 121.652 82.48 123.787L93.3306 158.901C93.8111 160.423 94.1448 161.677 94.3316 162.665C94.5185 163.626 94.6786 164.774 94.8121 166.108H95.0523C95.1858 164.774 95.3459 163.626 95.5328 162.665C95.7196 161.677 96.0533 160.423 96.5338 158.901L107.384 123.787C108.052 121.652 109.159 120.584 110.708 120.584H122.319C124.187 120.584 125.122 121.585 125.122 123.587V174.997C125.122 176.999 124.187 178 122.319 178H116.233C114.364 178 113.43 176.999 113.43 174.997V141.925C113.43 140.323 113.497 138.722 113.63 137.12H113.35L101.779 174.757C101.112 176.919 99.9638 178 98.3355 178H91.5289C89.9006 178 88.7528 176.919 88.0855 174.757L76.5142 137.12H76.2339C76.3674 138.722 76.4341 140.323 76.4341 141.925V174.997C76.4341 176.999 75.4999 178 73.6314 178H67.5455ZM138.251 149.292C138.251 140.083 140.627 132.769 145.378 127.351C150.13 121.932 156.909 119.223 165.718 119.223C174.527 119.223 181.307 121.932 186.058 127.351C190.809 132.769 193.185 140.083 193.185 149.292C193.185 158.501 190.809 165.815 186.058 171.233C181.307 176.652 174.527 179.361 165.718 179.361C156.909 179.361 150.13 176.652 145.378 171.233C140.627 165.815 138.251 158.501 138.251 149.292ZM150.743 149.292C150.743 155.965 151.931 161.077 154.307 164.627C156.709 168.15 160.513 169.912 165.718 169.912C170.923 169.912 174.713 168.15 177.089 164.627C179.491 161.077 180.693 155.965 180.693 149.292C180.693 142.619 179.491 137.521 177.089 133.997C174.713 130.447 170.923 128.672 165.718 128.672C160.513 128.672 156.709 130.447 154.307 133.997C151.931 137.521 150.743 142.619 150.743 149.292ZM204.272 130.834C202.271 130.834 201.27 129.966 201.27 128.231V123.187C201.27 121.451 202.271 120.584 204.272 120.584H245.433C247.435 120.584 248.436 121.451 248.436 123.187V128.231C248.436 129.966 247.435 130.834 245.433 130.834H230.698V175.798C230.698 177.266 230.031 178 228.696 178H221.009C219.674 178 219.007 177.266 219.007 175.798V130.834H204.272ZM259.483 154.097V122.786C259.483 121.318 260.417 120.584 262.286 120.584H268.372C270.24 120.584 271.175 121.318 271.175 122.786V153.696C271.175 160.903 272.229 165.414 274.338 167.229C276.473 169.018 278.875 169.912 281.545 169.912C284.214 169.912 286.603 169.018 288.712 167.229C290.847 165.414 291.915 160.903 291.915 153.696V122.786C291.915 121.318 292.849 120.584 294.717 120.584H300.803C302.672 120.584 303.606 121.318 303.606 122.786V154.097C303.606 163.439 301.631 169.992 297.68 173.756C293.73 177.493 288.351 179.361 281.545 179.361C274.738 179.361 269.359 177.493 265.409 173.756C261.458 169.992 259.483 163.439 259.483 154.097ZM320.379 173.716C318.724 172.461 318.324 171.193 319.178 169.912L322.261 165.268C323.275 163.746 324.757 163.666 326.706 165.027C328.2 166.068 330.149 167.149 332.551 168.271C334.98 169.365 337.529 169.912 340.199 169.912C342.067 169.912 343.869 169.699 345.604 169.271C347.339 168.844 348.66 168.017 349.568 166.789C350.475 165.561 350.929 164.106 350.929 162.425C350.929 161.224 350.729 160.169 350.329 159.262C349.928 158.354 349.274 157.607 348.367 157.02C347.459 156.432 346.525 155.938 345.564 155.538C343.882 154.844 341.76 154.163 339.198 153.496C336.662 152.802 334.153 151.975 331.67 151.014C329.455 150.16 327.426 148.985 325.584 147.49C323.743 145.995 322.315 144.314 321.3 142.445C320.286 140.577 319.779 138.081 319.779 134.958C319.779 131.248 320.98 128.071 323.382 125.429C325.785 122.786 328.547 121.091 331.67 120.344C334.793 119.596 337.943 119.223 341.12 119.223C344.269 119.223 347.512 119.703 350.849 120.664C354.212 121.625 356.748 122.826 358.456 124.268C360.138 125.682 360.552 126.964 359.698 128.111L356.455 132.476C355.36 133.97 353.892 134.09 352.05 132.836C350.876 132.035 349.261 131.141 347.206 130.153C345.177 129.166 343.055 128.672 340.839 128.672C339.264 128.672 337.81 128.805 336.475 129.072C335.167 129.339 334.006 129.98 332.992 130.994C331.977 132.008 331.47 133.263 331.47 134.758C331.47 136.199 331.844 137.374 332.591 138.281C333.339 139.162 334.166 139.829 335.074 140.283C335.981 140.71 336.902 141.071 337.836 141.364C340.719 142.299 343.295 143.126 345.564 143.847C347.833 144.541 349.928 145.315 351.85 146.169C354.519 147.37 356.561 148.571 357.976 149.772C359.391 150.974 360.552 152.615 361.459 154.697C362.394 156.779 362.861 159.262 362.861 162.145C362.861 166.415 361.499 169.952 358.777 172.755C356.054 175.531 353.025 177.319 349.688 178.12C346.378 178.948 343.148 179.361 339.998 179.361C335.354 179.361 331.577 178.908 328.667 178C325.758 177.119 322.995 175.691 320.379 173.716Z" fill="#212121"/>
<path d="M82.48 123.787L84.3909 123.197L84.389 123.191L82.48 123.787ZM93.3306 158.901L91.4197 159.492L91.4235 159.504L93.3306 158.901ZM94.3316 162.665L92.3664 163.037L92.3684 163.047L94.3316 162.665ZM94.8121 166.108L92.822 166.307L93.0021 168.108H94.8121V166.108ZM95.0523 166.108V168.108H96.8623L97.0424 166.307L95.0523 166.108ZM95.5328 162.665L97.496 163.047L97.4979 163.037L95.5328 162.665ZM96.5338 158.901L98.441 159.504L98.4446 159.492L96.5338 158.901ZM107.384 123.787L105.475 123.191L105.473 123.197L107.384 123.787ZM113.63 137.12L115.624 137.286L115.804 135.12H113.63V137.12ZM113.35 137.12V135.12H111.873L111.438 136.532L113.35 137.12ZM101.779 174.757L103.69 175.347L103.691 175.345L101.779 174.757ZM88.0855 174.757L86.1738 175.345L86.1745 175.347L88.0855 174.757ZM76.5142 137.12L78.4259 136.532L77.9917 135.12H76.5142V137.12ZM76.2339 137.12V135.12H74.0603L74.2409 137.286L76.2339 137.12ZM67.5455 176C67.2515 176 67.0792 175.96 66.9919 175.929C66.95 175.914 66.928 175.901 66.9191 175.895C66.9107 175.89 66.9075 175.887 66.9055 175.885C66.9033 175.882 66.8948 175.873 66.8819 175.85C66.8686 175.826 66.8485 175.784 66.8276 175.717C66.7844 175.578 66.7427 175.348 66.7427 174.997H62.7427C62.7427 176.273 63.0378 177.603 63.9813 178.614C64.9491 179.651 66.2662 180 67.5455 180V176ZM66.7427 174.997V123.587H62.7427V174.997H66.7427ZM66.7427 123.587C66.7427 123.236 66.7844 123.006 66.8276 122.867C66.8485 122.8 66.8686 122.758 66.8819 122.734C66.8948 122.711 66.9033 122.702 66.9055 122.699C66.9075 122.697 66.9107 122.694 66.9191 122.689C66.928 122.683 66.95 122.67 66.9919 122.655C67.0792 122.624 67.2515 122.584 67.5455 122.584V118.584C66.2662 118.584 64.9491 118.933 63.9813 119.97C63.0378 120.981 62.7427 122.311 62.7427 123.587H66.7427ZM67.5455 122.584H79.1568V118.584H67.5455V122.584ZM79.1568 122.584C79.4168 122.584 79.5823 122.653 79.7608 122.825C79.9879 123.044 80.2951 123.501 80.5711 124.384L84.389 123.191C83.9976 121.938 83.4173 120.794 82.5367 119.945C81.6075 119.049 80.445 118.584 79.1568 118.584V122.584ZM80.5692 124.378L91.4198 159.492L95.2415 158.311L84.3909 123.197L80.5692 124.378ZM91.4235 159.504C91.8922 160.988 92.2003 162.159 92.3665 163.037L96.2967 162.293C96.0892 161.196 95.73 159.858 95.2378 158.299L91.4235 159.504ZM92.3684 163.047C92.5401 163.93 92.6926 165.013 92.822 166.307L96.8021 165.909C96.6646 164.534 96.4968 163.322 96.2948 162.283L92.3684 163.047ZM94.8121 168.108H95.0523V164.108H94.8121V168.108ZM97.0424 166.307C97.1718 165.013 97.3243 163.93 97.496 163.047L93.5695 162.283C93.3675 163.322 93.1998 164.534 93.0622 165.909L97.0424 166.307ZM97.4979 163.037C97.6641 162.159 97.9722 160.988 98.4409 159.504L94.6266 158.299C94.1343 159.858 93.7752 161.196 93.5676 162.293L97.4979 163.037ZM98.4446 159.492L109.295 124.378L105.473 123.197L94.6229 158.311L98.4446 159.492ZM109.293 124.384C109.569 123.501 109.876 123.044 110.104 122.825C110.282 122.653 110.448 122.584 110.708 122.584V118.584C109.419 118.584 108.257 119.049 107.328 119.945C106.447 120.794 105.867 121.938 105.475 123.191L109.293 124.384ZM110.708 122.584H122.319V118.584H110.708V122.584ZM122.319 122.584C122.613 122.584 122.785 122.624 122.872 122.655C122.914 122.67 122.936 122.683 122.945 122.689C122.954 122.694 122.957 122.697 122.959 122.699C122.961 122.702 122.97 122.711 122.982 122.734C122.996 122.758 123.016 122.8 123.037 122.867C123.08 123.006 123.122 123.236 123.122 123.587H127.122C127.122 122.311 126.827 120.981 125.883 119.97C124.915 118.933 123.598 118.584 122.319 118.584V122.584ZM123.122 123.587V174.997H127.122V123.587H123.122ZM123.122 174.997C123.122 175.348 123.08 175.578 123.037 175.717C123.016 175.784 122.996 175.826 122.982 175.85C122.97 175.873 122.961 175.882 122.959 175.885C122.957 175.887 122.954 175.89 122.945 175.895C122.936 175.901 122.914 175.914 122.872 175.929C122.785 175.96 122.613 176 122.319 176V180C123.598 180 124.915 179.651 125.883 178.614C126.827 177.603 127.122 176.273 127.122 174.997H123.122ZM122.319 176H116.233V180H122.319V176ZM116.233 176C115.939 176 115.767 175.96 115.679 175.929C115.638 175.914 115.616 175.901 115.607 175.895C115.598 175.89 115.595 175.887 115.593 175.885C115.591 175.882 115.582 175.873 115.569 175.85C115.556 175.826 115.536 175.784 115.515 175.717C115.472 175.578 115.43 175.348 115.43 174.997H111.43C111.43 176.273 111.725 177.603 112.669 178.614C113.637 179.651 114.954 180 116.233 180V176ZM115.43 174.997V141.925H111.43V174.997H115.43ZM115.43 141.925C115.43 140.379 115.495 138.833 115.624 137.286L111.637 136.954C111.499 138.611 111.43 140.268 111.43 141.925H115.43ZM113.63 135.12H113.35V139.12H113.63V135.12ZM111.438 136.532L99.8672 174.169L103.691 175.345L115.262 137.708L111.438 136.532ZM99.8678 174.167C99.5945 175.053 99.2823 175.511 99.0463 175.733C98.8567 175.912 98.6584 176 98.3355 176V180C99.6409 180 100.831 179.548 101.789 178.645C102.701 177.786 103.296 176.623 103.69 175.347L99.8678 174.167ZM98.3355 176H91.5289V180H98.3355V176ZM91.5289 176C91.206 176 91.0077 175.912 90.8181 175.733C90.5821 175.511 90.2699 175.053 89.9966 174.167L86.1745 175.347C86.5684 176.623 87.1638 177.786 88.0756 178.645C89.0337 179.548 90.2235 180 91.5289 180V176ZM89.9972 174.169L78.4259 136.532L74.6025 137.708L86.1738 175.345L89.9972 174.169ZM76.5142 135.12H76.2339V139.12H76.5142V135.12ZM74.2409 137.286C74.3697 138.833 74.4341 140.379 74.4341 141.925H78.4341C78.4341 140.268 78.3651 138.611 78.227 136.954L74.2409 137.286ZM74.4341 141.925V174.997H78.4341V141.925H74.4341ZM74.4341 174.997C74.4341 175.348 74.3924 175.578 74.3493 175.717C74.3283 175.784 74.3083 175.826 74.295 175.85C74.2821 175.873 74.2736 175.882 74.2713 175.885C74.2693 175.887 74.2662 175.89 74.2578 175.895C74.2488 175.901 74.2268 175.914 74.1849 175.929C74.0977 175.96 73.9254 176 73.6314 176V180C74.9106 180 76.2278 179.651 77.1956 178.614C78.1391 177.603 78.4341 176.273 78.4341 174.997H74.4341ZM73.6314 176H67.5455V180H73.6314V176ZM145.378 171.233L143.874 172.552L145.378 171.233ZM154.307 164.627L152.645 165.739L152.65 165.746L152.654 165.754L154.307 164.627ZM177.089 164.627L175.433 163.506L175.431 163.509L177.089 164.627ZM177.089 133.997L175.427 135.109L175.432 135.117L175.437 135.124L177.089 133.997ZM154.307 133.997L152.651 132.876L152.649 132.879L154.307 133.997ZM140.251 149.292C140.251 140.43 142.531 133.631 146.882 128.669L143.874 126.032C138.722 131.908 136.251 139.736 136.251 149.292H140.251ZM146.882 128.669C151.171 123.778 157.346 121.223 165.718 121.223V117.223C156.473 117.223 149.089 120.086 143.874 126.032L146.882 128.669ZM165.718 121.223C174.09 121.223 180.266 123.778 184.554 128.669L187.562 126.032C182.348 120.086 174.963 117.223 165.718 117.223V121.223ZM184.554 128.669C188.905 133.631 191.185 140.43 191.185 149.292H195.185C195.185 139.736 192.714 131.908 187.562 126.032L184.554 128.669ZM191.185 149.292C191.185 158.154 188.905 164.953 184.554 169.915L187.562 172.552C192.714 166.676 195.185 158.848 195.185 149.292H191.185ZM184.554 169.915C180.266 174.806 174.09 177.361 165.718 177.361V181.361C174.963 181.361 182.348 178.498 187.562 172.552L184.554 169.915ZM165.718 177.361C157.346 177.361 151.171 174.806 146.882 169.915L143.874 172.552C149.089 178.498 156.473 181.361 165.718 181.361V177.361ZM146.882 169.915C142.531 164.953 140.251 158.154 140.251 149.292H136.251C136.251 158.848 138.722 166.676 143.874 172.552L146.882 169.915ZM148.743 149.292C148.743 156.156 149.957 161.723 152.645 165.739L155.969 163.515C153.905 160.431 152.743 155.775 152.743 149.292H148.743ZM152.654 165.754C155.514 169.948 160.018 171.912 165.718 171.912V167.912C161.008 167.912 157.905 166.353 155.959 163.5L152.654 165.754ZM165.718 171.912C171.418 171.912 175.914 169.947 178.747 165.745L175.431 163.509C173.513 166.353 170.428 167.912 165.718 167.912V171.912ZM178.746 165.748C181.465 161.73 182.693 156.159 182.693 149.292H178.693C178.693 155.772 177.518 160.424 175.433 163.506L178.746 165.748ZM182.693 149.292C182.693 142.427 181.465 136.865 178.742 132.87L175.437 135.124C177.518 138.176 178.693 142.811 178.693 149.292H182.693ZM178.751 132.885C175.92 128.654 171.424 126.672 165.718 126.672V130.672C170.422 130.672 173.507 132.239 175.427 135.109L178.751 132.885ZM165.718 126.672C160.011 126.672 155.507 128.654 152.651 132.876L155.963 135.118C157.911 132.24 161.014 130.672 165.718 130.672V126.672ZM152.649 132.879C149.956 136.872 148.743 142.43 148.743 149.292H152.743C152.743 142.808 153.906 138.169 155.965 135.115L152.649 132.879ZM230.698 130.834V128.834H228.698V130.834H230.698ZM219.007 130.834H221.007V128.834H219.007V130.834ZM204.272 128.834C203.91 128.834 203.666 128.794 203.514 128.75C203.44 128.729 203.392 128.708 203.365 128.694C203.352 128.687 203.343 128.681 203.338 128.677C203.332 128.674 203.33 128.672 203.33 128.672C203.33 128.672 203.331 128.673 203.333 128.675C203.334 128.677 203.336 128.678 203.336 128.679C203.338 128.681 203.333 128.675 203.324 128.652C203.306 128.604 203.27 128.478 203.27 128.231H199.27C199.27 129.488 199.645 130.772 200.71 131.695C201.721 132.57 203.028 132.834 204.272 132.834V128.834ZM203.27 128.231V123.187H199.27V128.231H203.27ZM203.27 123.187C203.27 122.94 203.306 122.814 203.324 122.766C203.333 122.743 203.338 122.737 203.336 122.739C203.336 122.74 203.334 122.741 203.333 122.743C203.331 122.745 203.33 122.746 203.33 122.746C203.33 122.746 203.332 122.744 203.338 122.741C203.343 122.737 203.352 122.731 203.365 122.724C203.392 122.71 203.44 122.689 203.514 122.668C203.666 122.624 203.91 122.584 204.272 122.584V118.584C203.028 118.584 201.721 118.848 200.71 119.723C199.645 120.646 199.27 121.93 199.27 123.187H203.27ZM204.272 122.584H245.433V118.584H204.272V122.584ZM245.433 122.584C245.795 122.584 246.039 122.624 246.191 122.668C246.265 122.689 246.313 122.71 246.34 122.724C246.353 122.731 246.362 122.737 246.368 122.741C246.373 122.744 246.375 122.746 246.375 122.746C246.375 122.746 246.374 122.745 246.372 122.743C246.371 122.741 246.369 122.74 246.369 122.739C246.367 122.737 246.372 122.743 246.381 122.766C246.4 122.814 246.436 122.94 246.436 123.187H250.436C250.436 121.93 250.06 120.646 248.995 119.723C247.984 118.848 246.677 118.584 245.433 118.584V122.584ZM246.436 123.187V128.231H250.436V123.187H246.436ZM246.436 128.231C246.436 128.478 246.4 128.604 246.381 128.652C246.372 128.675 246.367 128.681 246.369 128.679C246.369 128.678 246.371 128.677 246.372 128.675C246.374 128.673 246.375 128.672 246.375 128.672C246.375 128.672 246.373 128.674 246.368 128.677C246.362 128.681 246.353 128.687 246.34 128.694C246.313 128.708 246.265 128.729 246.191 128.75C246.039 128.794 245.795 128.834 245.433 128.834V132.834C246.677 132.834 247.984 132.57 248.995 131.695C250.06 130.772 250.436 129.488 250.436 128.231H246.436ZM245.433 128.834H230.698V132.834H245.433V128.834ZM228.698 130.834V175.798H232.698V130.834H228.698ZM228.698 175.798C228.698 176.02 228.672 176.138 228.659 176.181C228.648 176.218 228.655 176.173 228.718 176.104C228.747 176.072 228.781 176.043 228.815 176.021C228.848 175.999 228.873 175.988 228.884 175.985C228.902 175.978 228.852 176 228.696 176V180C229.724 180 230.847 179.709 231.678 178.795C232.476 177.917 232.698 176.796 232.698 175.798H228.698ZM228.696 176H221.009V180H228.696V176ZM221.009 176C220.853 176 220.803 175.978 220.821 175.985C220.832 175.988 220.857 175.999 220.891 176.021C220.924 176.043 220.958 176.072 220.987 176.104C221.05 176.173 221.057 176.218 221.046 176.181C221.033 176.138 221.007 176.02 221.007 175.798H217.007C217.007 176.796 217.229 177.917 218.027 178.795C218.858 179.709 219.981 180 221.009 180V176ZM221.007 175.798V130.834H217.007V175.798H221.007ZM219.007 128.834H204.272V132.834H219.007V128.834ZM274.338 167.229L273.033 168.745L273.043 168.754L273.053 168.763L274.338 167.229ZM288.712 167.229L290.005 168.755L290.007 168.753L288.712 167.229ZM297.68 173.756L299.055 175.209L299.06 175.204L297.68 173.756ZM265.409 173.756L264.029 175.204L264.035 175.209L265.409 173.756ZM261.483 154.097V122.786H257.483V154.097H261.483ZM261.483 122.786C261.483 122.628 261.508 122.583 261.499 122.604C261.485 122.637 261.453 122.681 261.419 122.707C261.396 122.726 261.425 122.694 261.566 122.656C261.712 122.618 261.943 122.584 262.286 122.584V118.584C261.144 118.584 259.919 118.799 258.948 119.562C257.885 120.397 257.483 121.598 257.483 122.786H261.483ZM262.286 122.584H268.372V118.584H262.286V122.584ZM268.372 122.584C268.715 122.584 268.946 122.618 269.091 122.656C269.233 122.694 269.262 122.726 269.238 122.707C269.205 122.681 269.172 122.637 269.158 122.604C269.149 122.583 269.175 122.628 269.175 122.786H273.175C273.175 121.598 272.772 120.397 271.709 119.562C270.739 118.799 269.514 118.584 268.372 118.584V122.584ZM269.175 122.786V153.696H273.175V122.786H269.175ZM269.175 153.696C269.175 157.378 269.442 160.477 270.018 162.94C270.583 165.359 271.506 167.431 273.033 168.745L275.642 165.714C275.06 165.213 274.402 164.122 273.913 162.03C273.434 159.982 273.175 157.221 273.175 153.696H269.175ZM273.053 168.763C275.532 170.838 278.384 171.912 281.545 171.912V167.912C279.367 167.912 277.414 167.197 275.622 165.696L273.053 168.763ZM281.545 171.912C284.706 171.912 287.549 170.838 290.005 168.755L287.418 165.704C285.657 167.198 283.722 167.912 281.545 167.912V171.912ZM290.007 168.753C291.55 167.441 292.487 165.369 293.06 162.946C293.644 160.48 293.915 157.38 293.915 153.696H289.915C289.915 157.22 289.652 159.979 289.168 162.024C288.674 164.112 288.008 165.202 287.416 165.706L290.007 168.753ZM293.915 153.696V122.786H289.915V153.696H293.915ZM293.915 122.786C293.915 122.628 293.94 122.583 293.931 122.604C293.917 122.637 293.885 122.681 293.851 122.707C293.827 122.726 293.856 122.694 293.998 122.656C294.143 122.618 294.375 122.584 294.717 122.584V118.584C293.576 118.584 292.351 118.799 291.38 119.562C290.317 120.397 289.915 121.598 289.915 122.786H293.915ZM294.717 122.584H300.803V118.584H294.717V122.584ZM300.803 122.584C301.146 122.584 301.378 122.618 301.523 122.656C301.665 122.694 301.694 122.726 301.67 122.707C301.636 122.681 301.604 122.637 301.59 122.604C301.581 122.583 301.606 122.628 301.606 122.786H305.606C305.606 121.598 305.204 120.397 304.141 119.562C303.17 118.799 301.945 118.584 300.803 118.584V122.584ZM301.606 122.786V154.097H305.606V122.786H301.606ZM301.606 154.097C301.606 163.259 299.651 169.116 296.301 172.308L299.06 175.204C303.611 170.868 305.606 163.62 305.606 154.097H301.606ZM296.306 172.303C292.814 175.606 287.975 177.361 281.545 177.361V181.361C288.728 181.361 294.645 179.38 299.055 175.209L296.306 172.303ZM281.545 177.361C275.115 177.361 270.275 175.606 266.783 172.303L264.035 175.209C268.444 179.38 274.361 181.361 281.545 181.361V177.361ZM266.788 172.308C263.438 169.116 261.483 163.259 261.483 154.097H257.483C257.483 163.62 259.479 170.868 264.029 175.204L266.788 172.308ZM320.379 173.716L319.171 175.31L319.174 175.312L320.379 173.716ZM319.178 169.912L320.842 171.022L320.844 171.018L319.178 169.912ZM322.261 165.268L320.597 164.158L320.595 164.161L322.261 165.268ZM326.706 165.027L325.56 166.667L325.563 166.669L326.706 165.027ZM332.551 168.271L331.705 170.083L331.718 170.089L331.73 170.094L332.551 168.271ZM345.604 169.271L345.126 167.329L345.604 169.271ZM348.367 157.02L349.453 155.34L348.367 157.02ZM345.564 155.538L346.333 153.692L346.327 153.689L345.564 155.538ZM339.198 153.496L338.67 155.425L338.682 155.428L338.694 155.432L339.198 153.496ZM331.67 151.014L332.392 149.149L332.39 149.148L331.67 151.014ZM325.584 147.49L324.324 149.043L325.584 147.49ZM321.3 142.445L319.543 143.399L321.3 142.445ZM350.849 120.664L350.296 122.586L350.3 122.587L350.849 120.664ZM358.456 124.268L357.167 125.796L357.169 125.798L358.456 124.268ZM359.698 128.111L358.093 126.917L358.092 126.918L359.698 128.111ZM356.455 132.476L354.849 131.283L354.845 131.288L354.841 131.294L356.455 132.476ZM352.05 132.836L350.924 134.488L350.924 134.489L352.05 132.836ZM347.206 130.153L346.33 131.952L346.339 131.956L347.206 130.153ZM336.475 129.072L336.083 127.111L336.075 127.113L336.475 129.072ZM332.992 130.994L331.577 129.58L332.992 130.994ZM332.591 138.281L331.047 139.553L331.057 139.564L331.066 139.575L332.591 138.281ZM335.074 140.283L334.179 142.072L334.201 142.083L334.222 142.093L335.074 140.283ZM337.836 141.364L338.453 139.462L338.444 139.459L338.436 139.456L337.836 141.364ZM345.564 143.847L344.958 145.753L344.969 145.756L344.979 145.759L345.564 143.847ZM351.85 146.169L352.671 144.345L352.662 144.341L351.85 146.169ZM361.459 154.697L359.626 155.496L359.63 155.506L359.635 155.516L361.459 154.697ZM358.777 172.755L360.205 174.155L360.211 174.148L358.777 172.755ZM349.688 178.12L349.221 176.175L349.212 176.178L349.203 176.18L349.688 178.12ZM328.667 178L329.263 176.091L329.255 176.088L329.247 176.086L328.667 178ZM321.588 172.122C320.918 171.614 320.768 171.295 320.745 171.222C320.741 171.208 320.741 171.206 320.742 171.212C320.742 171.218 320.742 171.222 320.742 171.221C320.742 171.22 320.753 171.155 320.842 171.022L317.514 168.803C316.81 169.858 316.518 171.119 316.931 172.426C317.308 173.621 318.186 174.563 319.171 175.31L321.588 172.122ZM320.844 171.018L323.927 166.374L320.595 164.161L317.512 168.806L320.844 171.018ZM323.925 166.377C324.061 166.174 324.157 166.101 324.19 166.08C324.21 166.067 324.216 166.065 324.241 166.063C324.338 166.058 324.747 166.099 325.56 166.667L327.851 163.388C326.716 162.595 325.41 161.994 324.025 162.069C322.508 162.151 321.363 163.009 320.597 164.158L323.925 166.377ZM325.563 166.669C327.183 167.797 329.242 168.933 331.705 170.083L333.397 166.458C331.056 165.366 329.217 164.34 327.848 163.386L325.563 166.669ZM331.73 170.094C334.417 171.305 337.247 171.912 340.199 171.912V167.912C337.812 167.912 335.543 167.425 333.373 166.447L331.73 170.094ZM340.199 171.912C342.221 171.912 344.184 171.681 346.082 171.214L345.126 167.329C343.554 167.716 341.913 167.912 340.199 167.912V171.912ZM346.082 171.214C348.189 170.695 349.945 169.643 351.176 167.978L347.959 165.6C347.375 166.391 346.489 166.994 345.126 167.329L346.082 171.214ZM351.176 167.978C352.364 166.371 352.929 164.489 352.929 162.425H348.929C348.929 163.724 348.587 164.752 347.959 165.6L351.176 167.978ZM352.929 162.425C352.929 161.003 352.692 159.664 352.158 158.454L348.499 160.069C348.766 160.674 348.929 161.444 348.929 162.425H352.929ZM352.158 158.454C351.586 157.158 350.658 156.12 349.453 155.34L347.28 158.699C347.891 159.094 348.27 159.55 348.499 160.069L352.158 158.454ZM349.453 155.34C348.449 154.691 347.409 154.14 346.333 153.692L344.795 157.384C345.641 157.737 346.469 158.174 347.28 158.699L349.453 155.34ZM346.327 153.689C344.533 152.949 342.317 152.242 339.702 151.561L338.694 155.432C341.204 156.085 343.232 156.739 344.801 157.387L346.327 153.689ZM339.726 151.567C337.256 150.891 334.812 150.085 332.392 149.149L330.948 152.879C333.494 153.864 336.067 154.713 338.67 155.425L339.726 151.567ZM332.39 149.148C330.37 148.369 328.524 147.3 326.845 145.937L324.324 149.043C326.329 150.67 328.54 151.95 330.951 152.88L332.39 149.148ZM326.845 145.937C325.183 144.589 323.934 143.104 323.058 141.491L319.543 143.399C320.696 145.523 322.302 147.402 324.324 149.043L326.845 145.937ZM323.058 141.491C322.26 140.021 321.779 137.893 321.779 134.958H317.779C317.779 138.269 318.312 141.133 319.543 143.399L323.058 141.491ZM321.779 134.958C321.779 131.724 322.809 129.033 324.862 126.774L321.902 124.083C319.151 127.11 317.779 130.771 317.779 134.958H321.779ZM324.862 126.774C327.026 124.394 329.447 122.932 332.136 122.289L331.205 118.399C327.648 119.25 324.543 121.178 321.902 124.083L324.862 126.774ZM332.136 122.289C335.108 121.578 338.102 121.223 341.12 121.223V117.223C337.785 117.223 334.479 117.615 331.205 118.399L332.136 122.289ZM341.12 121.223C344.064 121.223 347.121 121.672 350.296 122.586L351.403 118.742C347.904 117.735 344.475 117.223 341.12 117.223V121.223ZM350.3 122.587C353.528 123.51 355.762 124.611 357.167 125.796L359.746 122.739C357.734 121.041 354.896 119.74 351.399 118.741L350.3 122.587ZM357.169 125.798C357.886 126.401 358.085 126.78 358.125 126.904C358.136 126.94 358.124 126.918 358.133 126.869C358.141 126.824 358.152 126.838 358.093 126.917L361.302 129.305C362.087 128.251 362.351 126.975 361.931 125.675C361.557 124.518 360.708 123.548 359.744 122.737L357.169 125.798ZM358.092 126.918L354.849 131.283L358.06 133.669L361.303 129.304L358.092 126.918ZM354.841 131.294C354.541 131.703 354.382 131.692 354.37 131.693C354.274 131.701 353.904 131.679 353.176 131.183L350.924 134.489C352.038 135.247 353.324 135.792 354.696 135.68C356.152 135.561 357.274 134.743 358.068 133.657L354.841 131.294ZM353.177 131.183C351.885 130.303 350.17 129.359 348.072 128.351L346.339 131.956C348.351 132.923 349.866 133.767 350.924 134.488L353.177 131.183ZM348.081 128.355C345.785 127.237 343.364 126.672 340.839 126.672V130.672C342.746 130.672 344.569 131.094 346.33 131.952L348.081 128.355ZM340.839 126.672C339.153 126.672 337.565 126.815 336.083 127.111L336.867 131.033C338.055 130.796 339.376 130.672 340.839 130.672V126.672ZM336.075 127.113C334.354 127.464 332.847 128.31 331.577 129.58L334.406 132.408C335.165 131.65 335.98 131.214 336.875 131.032L336.075 127.113ZM331.577 129.58C330.171 130.987 329.47 132.757 329.47 134.758H333.47C333.47 133.769 333.784 133.03 334.406 132.408L331.577 129.58ZM329.47 134.758C329.47 136.555 329.943 138.211 331.047 139.553L334.135 137.01C333.745 136.536 333.47 135.844 333.47 134.758H329.47ZM331.066 139.575C331.964 140.634 332.999 141.482 334.179 142.072L335.968 138.494C335.333 138.177 334.713 137.691 334.116 136.987L331.066 139.575ZM334.222 142.093C335.209 142.557 336.214 142.951 337.237 143.272L338.436 139.456C337.59 139.19 336.753 138.863 335.925 138.474L334.222 142.093ZM337.22 143.267C340.105 144.202 342.685 145.031 344.958 145.753L346.169 141.941C343.905 141.221 341.333 140.395 338.453 139.462L337.22 143.267ZM344.979 145.759C347.18 146.432 349.199 147.179 351.038 147.997L352.662 144.341C350.658 143.45 348.486 142.649 346.149 141.934L344.979 145.759ZM351.029 147.993C353.614 149.156 355.468 150.266 356.682 151.297L359.27 148.248C357.655 146.876 355.425 145.584 352.671 144.345L351.029 147.993ZM356.682 151.297C357.817 152.261 358.814 153.633 359.626 155.496L363.293 153.898C362.29 151.598 360.964 149.686 359.27 148.248L356.682 151.297ZM359.635 155.516C360.427 157.282 360.861 159.472 360.861 162.145H364.861C364.861 159.051 364.36 156.276 363.284 153.878L359.635 155.516ZM360.861 162.145C360.861 165.948 359.667 168.968 357.342 171.361L360.211 174.148C363.332 170.936 364.861 166.883 364.861 162.145H360.861ZM357.349 171.354C354.853 173.899 352.146 175.473 349.221 176.175L350.155 180.065C353.903 179.165 357.255 177.163 360.205 174.155L357.349 171.354ZM349.203 176.18C346.039 176.971 342.972 177.361 339.998 177.361V181.361C343.325 181.361 346.718 180.924 350.173 180.06L349.203 176.18ZM339.998 177.361C335.462 177.361 331.907 176.915 329.263 176.091L328.072 179.909C331.247 180.9 335.246 181.361 339.998 181.361V177.361ZM329.247 176.086C326.58 175.278 324.027 173.964 321.585 172.12L319.174 175.312C321.963 177.418 324.936 178.96 328.088 179.914L329.247 176.086Z" fill="#C4C4C4"/>
</svg>
