<svg width="32" height="32" viewBox="0 0 32 32" fill="none" xmlns="http://www.w3.org/2000/svg">
<path d="M11.3244 4.46222C11.0044 5.6 10.8444 6.79111 10.8444 8C10.8444 15.2533 16.7467 21.1556 24 21.1556C25.2089 21.1556 26.4 20.9956 27.5378 20.6756C25.6889 25.2267 21.2089 28.4444 16 28.4444C9.13778 28.4444 3.55556 22.8622 3.55556 16C3.55556 10.7911 6.77333 6.31111 11.3244 4.46222ZM16 0C7.16444 0 0 7.16444 0 16C0 24.8356 7.16444 32 16 32C24.8356 32 32 24.8356 32 16C32 15.1822 31.9289 14.3644 31.8222 13.5822C30.08 16.0178 27.2356 17.6 24 17.6C18.7022 17.6 14.4 13.2978 14.4 8C14.4 4.78222 15.9822 1.92 18.4178 0.177778C17.6356 0.0711109 16.8178 0 16 0Z" fill="#C4C4C4"/>
</svg>
